<svg width="175" height="24" xmlns="http://www.w3.org/2000/svg">
 <!-- Created with Method Draw - http://github.com/duopixel/Method-Draw/ -->

 <g>
  <title>background</title>
  <rect fill="none" id="canvas_background" height="26" width="177" y="-1" x="-1"/>
  <g display="none" overflow="visible" y="0" x="0" height="100%" width="100%" id="canvasGrid">
   <rect fill="url(#gridpattern)" stroke-width="0" y="0" x="0" height="100%" width="100%"/>
  </g>
 </g>
 <g>
  <title>Layer 1</title>
  <text xml:space="preserve" text-anchor="start" font-family="Arvo, sans-serif" font-size="24" id="svg_1" y="279.45313" x="204.5" stroke-width="0" stroke="#000" fill="#000000">World Ranklist</text>
  <metadata transform="matrix(0.0005953591589477648,0,0,0.0005953591589477648,0,0) ">Svg Vector Icons : http://www.onlinewebfonts.com/icon</metadata>
  <g stroke="null" id="svg_31">
   <g stroke="null" transform="matrix(0.024015907370194618,0,0,0.024015907370194618,-0.23420548970960375,-0.23420548970960375) " id="svg_7">
    <g stroke="null" id="svg_8">
     <g stroke="null" id="svg_9">
      <polygon stroke="null" id="svg_10" points="944.3468475341797,228 945.3468475341797,235.1999969482422 934.4468841552734,237.5 932.9468841552734,253 946.0468597412109,253 963.3468475341797,251.3000030517578 972.3468475341797,240.6999969482422 962.8468475341797,236.89999389648438 957.6468963623047,230.89999389648438 949.7468719482422,218.1999969482422 946.0468597412109,200.3000030517578 931.2468719482422,203.3000030517578 927.1468963623047,209.60000610351562 927.1468963623047,216.8000030517578 934.2468719482422,221.60000610351562 "/>
      <polygon stroke="null" id="svg_11" points="931.8468475341797,233.89999389648438 932.5468597412109,224.1999969482422 923.9468841552734,220.5 911.8468475341797,223.3000030517578 902.8468475341797,237.6999969482422 902.8468475341797,247 913.3468475341797,247 "/>
      <path stroke="null" id="svg_12" d="m682.94687,275.2l-2.7,6.8l-12.9,0l0,6.7l3.1,0c0,0 0.2,1.4 0.4,3.3l7.9,-0.7l4.9,-3.1l1.3,-6.2l6.4,-0.5l2.5,-5.2l-5.9,-1.2l-5,0.1z"/>
      <polygon stroke="null" id="svg_13" points="649.7468719482422,287.29998779296875 649.2468719482422,293.79998779296875 658.5468597412109,293 659.4468841552734,286.3999938964844 653.8468780517578,282 "/>
      <path stroke="null" id="svg_14" d="m1210.14687,494.9c-0.2,-14.3 -0.9,-28.6 -2.2,-42.6c-4.5,-46.7 -15.7,-91.5 -32.4,-133.4c-1.3,-3.1 -2.4,-6.3 -3.7,-9.4c-22.3,-52.7 -53.6,-100.6 -91.9,-142c-2.5,-2.7 -5.1,-5.4 -7.6,-8c-7.2,-7.5 -14.7,-14.8 -22.4,-21.9c-87.2,-79.2 -202.9,-127.6 -329.7,-127.6c-127.9,0 -244.4,49.3 -331.7,129.8c-20.4,18.8 -39.1,39.2 -56,61.2c-64.1,82.8 -102.3,186.5 -102.3,299c0,270.2 219.8,490 490,490c190.1,0 355.1,-108.8 436.3,-267.4c17.4,-33.9 30.9,-70 40,-107.9c2.3,-9.6 4.3,-19.3 6,-29c4.9,-27.8 7.6,-56.5 7.6,-85.7c0.1,-1.7 0,-3.4 0,-5.1zm-92.2,-195.8l2.8,-3.2c3.7,7.2 7.2,14.6 10.6,22.1l-4.6,-0.2l-8.7,1.2l0,-19.9l-0.1,0zm-70.8,-85.5l0.1,-21.9c7.7,8.2 15.1,16.6 22.2,25.3l-8.8,13.1l-30.9,-0.3l-1.9,-6.4l19.3,-9.8zm-591.1,-54.4l0,-0.8l9.8,0l0.8,-3.4l16.1,0l0,7l-4.6,6.2l-22.1,0l0,-9l0,0zm15.7,21.9c0,0 9.8,-1.7 10.7,-1.7c0.8,0 0,9.8 0,9.8l-22.1,1.4l-4.2,-5l15.6,-4.5zm677.4,194.5l-35.9,0l-21.8,-16.3l-23,2.2l0,14l-7.3,0l-7.9,-5.6l-39.8,-10.1l0,-25.8l-50.5,3.9l-15.6,8.4l-20,0l-9.8,-1l-24.3,13.5l0,25.4l-49.7,35.9l4.1,15.3l10.1,0l-2.6,14.6l-7.1,2.6l-0.4,38.1l43,48.9l18.6,0l1.1,-3l33.6,0l9.7,-9l19.1,0l10.5,10.5l28.4,2.9l-3.8,37.8l31.5,55.7l-16.6,31.7l1.1,14.9l13.1,13l0,36l17.2,23.1l0,29.9l14.8,0c-82.5,101.6 -208.1,166.6 -348.7,166.6c-248,0 -449.7,-201.7 -449.7,-449.7c0,-62.4 12.8,-121.9 35.9,-176l0,-14l16.1,-19.5c5.6,-10.5 11.6,-20.8 18,-30.8l0.7,8.2l-18.7,22.7c-5.8,10.9 -11.2,22.1 -16.1,33.6l0,25.6l18.7,9l0,35.6l17.9,30.6l14.6,2.2l1.9,-10.5l-17.2,-26.7l-3.4,-25.8l10.1,0l4.3,26.5l24.8,36.3l-6.4,11.7l15.8,24.2l39.2,9.7l0,-6.4l15.7,2.2l-1.5,11.2l12.3,2.3l19.1,5.2l26.9,30.7l34.4,2.6l3.4,28l-23.5,16.5l-1.1,25l-3.4,15.3l34,42.6l2.6,14.6c0,0 12.3,3.3 13.8,3.3c1.5,0 27.7,19.8 27.7,19.8l0,77l9.3,2.6l-6.3,35.5l15.7,20.9l-2.9,35.2l20.7,36.5l26.6,23.2l26.8,0.5l2.6,-8.6l-19.7,-16.6l1.1,-8.2l3.5,-10.1l0.7,-10.3l-13.3,-0.4l-6.7,-8.4l11,-10.6l1.5,-8l-12.3,-3.5l0.7,-7.5l17.6,-2.7l26.7,-12.8l9,-16.5l28,-35.9l-6.4,-28l8.6,-14.9l25.8,0.8l17.4,-13.7l5.6,-54.1l19.2,-24.5l3.4,-15.7l-17.6,-5.6l-11.6,-19l-39.6,-0.4l-31.4,-12l-1.5,-22.4l-10.3,-18.3l-28.4,-0.4l-16.4,-25.8l-14.6,-7.1l-0.7,7.9l-26.5,1.6l-9.7,-13.5l-27.7,-5.6l-22.8,26.2l-35.9,-6.1l-2.6,-40.4l-26.2,-4.5l10.5,-19.8l-3,-11.4l-34.4,23l-21.7,-2.6l-7.7,-16.9l4.7,-17.4l11.9,-22l27.5,-13.9l53,0l-0.1,16.2l19.1,8.9l-1.5,-27.6l13.7,-13.8l27.7,-18.2l1.9,-12.8l27.7,-28.8l29.4,-16.3l-2.6,-2.1l19.9,-18.7l7.3,1.9l3.3,4.2l7.6,-8.4l1.9,-0.8l-8.3,-1.2l-8.4,-2.8l0,-8.1l4.5,-3.7l9.8,0l4.5,2l3.9,7.9l4.8,-0.7l0,-0.7l1.4,0.5l13.8,-2.1l1.9,-6.7l7.9,2l0,7.3l-7.3,5l0,0l1.1,8l25,7.7c0,0 0,0.1 0.1,0.3l5.7,-0.5l0.4,-10.8l-19.8,-9l-1.1,-5.2l16.4,-5.6l0.7,-15.7l-17.2,-10.5l-1.1,-26.5l-23.5,11.6l-8.6,0l2.3,-20.2l-32.1,-7.6l-13.3,10l0,30.3l-23.8,7.6l-9.6,19.9l-10.4,1.7l0,-25.5l-22.4,-3.1l-11.2,-7.3l-4.5,-16.5l40.1,-23.5l19.6,-6l2,13.2l10.9,-0.6l0.8,-6.6l11.4,-1.6l0.2,-2.3l-4.9,-2l-1.1,-7l14.1,-1.2l8.5,-8.8l0.5,-0.7l0.1,0l2.6,-2.7l29.5,-3.7l13.1,11.1l-34.4,18.2l43.6,10.3l5.6,-14.6l19.1,0l6.7,-12.7l-13.5,-3.4l0,-16.1l-42.2,-18.7l-29.1,3.4l-16.4,8.6l1.1,20.9l-17.2,-2.6l-2.6,-11.6l16.5,-15l-29.9,-1.5l-8.6,2.6l-3.7,10.1l11.2,1.9l-2.2,11.2l-19,1.1l-3,7.5l-27.6,0.8c0,0 -0.8,-15.7 -1.9,-15.7c-1.1,0 21.7,-0.4 21.7,-0.4l16.5,-16.1l-9,-4.5l-12,11.6l-19.8,-1.1l-11.9,-16.4l-25.4,0l-26.5,19.8l24.3,0l2.2,7.1l-6.3,5.9l26.9,0.7l4.1,9.7l-30.3,-1.1l-1.5,-7.5l-19,-4.1l-10.1,-5.6l-22.7,0.2c74,-54 165.2,-86 263.9,-86c113.7,0 217.6,42.5 296.9,112.3l-5.3,9.5l-20.7,8.1l-8.7,9.5l2,11.1l10.7,1.5l6.5,16.1l18.5,-7.4l3,21.6l-5.5,0l-15.2,-2.2l-16.8,2.8l-16.3,23l-23.3,3.7l-3.4,19.9l9.8,2.3l-2.9,12.8l-23.1,-4.6l-21.2,4.6l-4.5,11.8l3.7,24.8l12.4,5.8l20.9,-0.1l14.1,-1.3l4.3,-11.2l22,-28.6l14.5,3l14.3,-12.9l2.7,10.1l35.1,23.7l-4.3,5.8l-15.8,-0.8l6.1,8.6l9.7,2.1l11.4,-4.8l-0.2,-13.7l5.1,-2.5l-4.1,-4.3l-23.4,-13.1l-6.2,-17.4l19.5,0l6.2,6.2l16.8,14.5l0.7,17.5l17.4,18.5l6.5,-25.3l12,-6.6l2.3,20.7l11.7,12.9l23.5,-0.4c4.5,11.7 8.6,23.5 12.2,35.7l-2.7,2zm-651.6,-143l11.7,-5.6l10.6,2.5l-3.7,14.3l-11.5,3.7l-7.1,-14.9zm62.4,33.7l0,9.3l-26.9,0l-10.1,-2.8l2.5,-6.5l12.9,-5.3l17.7,0l0,5.3l3.9,0zm12.4,12.9l0,9l-6.7,4.3l-8.4,1.5c0,0 0,-13.4 0,-14.8l15.1,0zm-7.6,-3.7l0,-10.7l9.3,8.4l-9.3,2.3zm4.2,21.6l0,8.7l-6.4,6.5l-14.3,0l2.2,-9.8l6.8,-0.6l1.4,-3.4l10.3,-1.4zm-35.6,-17.9l14.9,0l-19,26.6l-7.9,-4.2l1.7,-11.2l10.3,-11.2zm60.9,14.8l0,8.7l-14.3,0l-3.9,-5.6l0,-8.1l1.1,0l17.1,5zm-13.2,-12l4.1,-4.3l6.9,4.3l-5.5,4.5l-5.5,-4.5zm575.4,116.3l1.4,-1.7c0.6,2.5 1.2,5.1 1.8,7.7l-3.2,-6z"/>
      <path stroke="null" id="svg_15" d="m306.44687,310l0,14c4.9,-11.4 10.3,-22.6 16.1,-33.6l-16.1,19.6z"/>
     </g>
    </g>
    <g stroke="null" id="svg_16"/>
    <g stroke="null" id="svg_17"/>
    <g stroke="null" id="svg_18"/>
    <g stroke="null" id="svg_19"/>
    <g stroke="null" id="svg_20"/>
    <g stroke="null" id="svg_21"/>
    <g stroke="null" id="svg_22"/>
    <g stroke="null" id="svg_23"/>
    <g stroke="null" id="svg_24"/>
    <g stroke="null" id="svg_25"/>
    <g stroke="null" id="svg_26"/>
    <g stroke="null" id="svg_27"/>
    <g stroke="null" id="svg_28"/>
    <g stroke="null" id="svg_29"/>
    <g stroke="null" id="svg_30"/>
   </g>
  </g>
  <text stroke="#000" transform="matrix(0.6900622844696045,0,0,0.7668486833572388,7.7581284418702126,6.469949036836624) " xml:space="preserve" text-anchor="start" font-family="Arvo, sans-serif" font-size="26" id="svg_32" y="16.04969" x="37.39431" stroke-width="0" fill="#000000">World Ranklist</text>
 </g>
</svg>